<svg width="237" height="65" viewBox="0 0 237 65" fill="none" xmlns="http://www.w3.org/2000/svg">
<path d="M17.584 63V12.312H0.4V0.407999H48.976V12.312H31.792V63H17.584ZM70.7193 64.152C66.6873 64.152 62.8793 63.192 59.2953 61.272C55.7753 59.288 52.9273 56.44 50.7513 52.728C48.5753 48.952 47.4873 44.44 47.4873 39.192C47.4873 33.88 48.5753 29.368 50.7513 25.656C52.9273 21.944 55.7753 19.128 59.2953 17.208C62.8793 15.224 66.6873 14.232 70.7193 14.232C74.7513 14.232 78.5273 15.224 82.0473 17.208C85.5673 19.128 88.4153 21.944 90.5913 25.656C92.7673 29.368 93.8553 33.88 93.8553 39.192C93.8553 44.44 92.7673 48.952 90.5913 52.728C88.4153 56.44 85.5673 59.288 82.0473 61.272C78.5273 63.192 74.7513 64.152 70.7193 64.152ZM70.7193 52.728C73.5993 52.728 75.7753 51.512 77.2473 49.08C78.7193 46.584 79.4553 43.288 79.4553 39.192C79.4553 35.032 78.7193 31.736 77.2473 29.304C75.7753 26.872 73.5993 25.656 70.7193 25.656C67.7753 25.656 65.5673 26.872 64.0953 29.304C62.6873 31.736 61.9833 35.032 61.9833 39.192C61.9833 43.288 62.6873 46.584 64.0953 49.08C65.5673 51.512 67.7753 52.728 70.7193 52.728Z" fill="#05CBF7"/>
<path d="M111.681 64.152C109.249 64.152 107.201 63.32 105.537 61.656C103.937 59.928 103.137 57.816 103.137 55.32C103.137 52.76 103.937 50.648 105.537 48.984C107.201 47.256 109.249 46.392 111.681 46.392C114.113 46.392 116.129 47.256 117.729 48.984C119.393 50.648 120.225 52.76 120.225 55.32C120.225 57.816 119.393 59.928 117.729 61.656C116.129 63.32 114.113 64.152 111.681 64.152Z" fill="#C911F7"/>
<path d="M133.455 63V0.407999H151.119C157.519 0.407999 163.055 1.496 167.727 3.672C172.399 5.848 176.015 9.24 178.575 13.848C181.199 18.392 182.51 24.248 182.51 31.416C182.51 38.584 181.231 44.504 178.671 49.176C176.111 53.848 172.527 57.336 167.919 59.64C163.375 61.88 158.031 63 151.887 63H133.455ZM147.567 51.576H150.255C153.839 51.576 156.943 50.936 159.567 49.656C162.255 48.376 164.335 46.264 165.807 43.32C167.279 40.376 168.015 36.408 168.015 31.416C168.015 26.424 167.279 22.52 165.807 19.704C164.335 16.824 162.255 14.808 159.567 13.656C156.943 12.44 153.839 11.832 150.255 11.832H147.567V51.576ZM213.688 64.152C209.656 64.152 205.848 63.192 202.264 61.272C198.744 59.288 195.896 56.44 193.72 52.728C191.544 48.952 190.456 44.44 190.456 39.192C190.456 33.88 191.544 29.368 193.72 25.656C195.896 21.944 198.744 19.128 202.264 17.208C205.848 15.224 209.656 14.232 213.688 14.232C217.72 14.232 221.496 15.224 225.016 17.208C228.536 19.128 231.384 21.944 233.56 25.656C235.736 29.368 236.824 33.88 236.824 39.192C236.824 44.44 235.736 48.952 233.56 52.728C231.384 56.44 228.536 59.288 225.016 61.272C221.496 63.192 217.72 64.152 213.688 64.152ZM213.688 52.728C216.568 52.728 218.744 51.512 220.216 49.08C221.688 46.584 222.424 43.288 222.424 39.192C222.424 35.032 221.688 31.736 220.216 29.304C218.744 26.872 216.568 25.656 213.688 25.656C210.744 25.656 208.536 26.872 207.064 29.304C205.656 31.736 204.952 35.032 204.952 39.192C204.952 43.288 205.656 46.584 207.064 49.08C208.536 51.512 210.744 52.728 213.688 52.728Z" fill="#083EFC"/>
</svg>
