<svg width="236" height="65" viewBox="0 0 236 65" fill="none" xmlns="http://www.w3.org/2000/svg">
<g clip-path="url(#clip0_5894_3286)">
<path d="M17.5839 63.0002V12.3122H0.399902V0.408203H48.9759V12.3122H31.7919V63.0002H17.5839ZM70.7192 64.1522C66.6872 64.1522 62.8792 63.1922 59.2952 61.2722C55.7752 59.2882 52.9272 56.4402 50.7512 52.7282C48.5752 48.9522 47.4872 44.4402 47.4872 39.1922C47.4872 33.8802 48.5752 29.3682 50.7512 25.6562C52.9272 21.9442 55.7752 19.1282 59.2952 17.2082C62.8792 15.2242 66.6872 14.2322 70.7192 14.2322C74.7512 14.2322 78.5272 15.2242 82.0472 17.2082C85.5672 19.1282 88.4152 21.9442 90.5912 25.6562C92.7672 29.3682 93.8552 33.8802 93.8552 39.1922C93.8552 44.4402 92.7672 48.9522 90.5912 52.7282C88.4152 56.4402 85.5672 59.2882 82.0472 61.2722C78.5272 63.1922 74.7512 64.1522 70.7192 64.1522ZM70.7192 52.7282C73.5992 52.7282 75.7752 51.5122 77.2472 49.0802C78.7192 46.5842 79.4552 43.2882 79.4552 39.1922C79.4552 35.0322 78.7192 31.7362 77.2472 29.3042C75.7752 26.8722 73.5992 25.6562 70.7192 25.6562C67.7752 25.6562 65.5672 26.8722 64.0952 29.3042C62.6872 31.7362 61.9832 35.0322 61.9832 39.1922C61.9832 43.2882 62.6872 46.5842 64.0952 49.0802C65.5672 51.5122 67.7752 52.7282 70.7192 52.7282ZM110.744 64.1522C108.312 64.1522 106.264 63.3202 104.6 61.6562C103 59.9282 102.2 57.8162 102.2 55.3202C102.2 52.7602 103 50.6482 104.6 48.9842C106.264 47.2562 108.312 46.3922 110.744 46.3922C113.176 46.3922 115.192 47.2562 116.792 48.9842C118.456 50.6482 119.288 52.7602 119.288 55.3202C119.288 57.8162 118.456 59.9282 116.792 61.6562C115.192 63.3202 113.176 64.1522 110.744 64.1522Z" fill="black"/>
<path d="M132.517 63.0002V0.408203H150.181C156.581 0.408203 162.117 1.4962 166.789 3.6722C171.461 5.8482 175.077 9.2402 177.637 13.8482C180.261 18.3922 181.573 24.2482 181.573 31.4162C181.573 38.5842 180.293 44.5042 177.733 49.1762C175.173 53.8482 171.589 57.3362 166.981 59.6402C162.437 61.8802 157.093 63.0002 150.949 63.0002H132.517ZM146.629 51.5762H149.317C152.901 51.5762 156.005 50.9362 158.629 49.6562C161.317 48.3762 163.397 46.2642 164.869 43.3202C166.341 40.3762 167.077 36.4082 167.077 31.4162C167.077 26.4242 166.341 22.5202 164.869 19.7042C163.397 16.8242 161.317 14.8082 158.629 13.6562C156.005 12.4402 152.901 11.8322 149.317 11.8322H146.629V51.5762ZM212.751 64.1522C208.719 64.1522 204.911 63.1922 201.327 61.2722C197.807 59.2882 194.959 56.4402 192.783 52.7282C190.607 48.9522 189.519 44.4402 189.519 39.1922C189.519 33.8802 190.607 29.3682 192.783 25.6562C194.959 21.9442 197.807 19.1282 201.327 17.2082C204.911 15.2242 208.719 14.2322 212.751 14.2322C216.783 14.2322 220.559 15.2242 224.079 17.2082C227.599 19.1282 230.447 21.9442 232.623 25.6562C234.799 29.3682 235.887 33.8802 235.887 39.1922C235.887 44.4402 234.799 48.9522 232.623 52.7282C230.447 56.4402 227.599 59.2882 224.079 61.2722C220.559 63.1922 216.783 64.1522 212.751 64.1522ZM212.751 52.7282C215.631 52.7282 217.807 51.5122 219.279 49.0802C220.751 46.5842 221.487 43.2882 221.487 39.1922C221.487 35.0322 220.751 31.7362 219.279 29.3042C217.807 26.8722 215.631 25.6562 212.751 25.6562C209.807 25.6562 207.599 26.8722 206.127 29.3042C204.719 31.7362 204.015 35.0322 204.015 39.1922C204.015 43.2882 204.719 46.5842 206.127 49.0802C207.599 51.5122 209.807 52.7282 212.751 52.7282Z" fill="#27AE60"/>
</g>
<defs>
<clipPath id="clip0_5894_3286">
<rect width="236" height="65" fill="white"/>
</clipPath>
</defs>
</svg>
